{
    "accessors" : [
        {
            "bufferView" : 0,
            "componentType" : 5121,
            "count" : 54,
            "max" : [
                53
            ],
            "min" : [
                0
            ],
            "type" : "SCALAR"
        },
        {
            "bufferView" : 1,
            "componentType" : 5126,
            "count" : 54,
            "max" : [
                0.006010000128298998,
                9.999999747378752e-06,
                0.0071000000461936
            ],
            "min" : [
                -0.00622999994084239,
                -1.6786500215530396,
                -0.0037799999117851257
            ],
            "type" : "VEC3"
        },
        {
            "bufferView" : 2,
            "componentType" : 5126,
            "count" : 54,
            "max" : [
                0.8831157684326172,
                0,
                0.527281641960144
            ],
            "min" : [
                -0.8496906757354736,
                0,
                -0.9992636442184448
            ],
            "type" : "VEC3"
        },
        {
            "bufferView" : 3,
            "componentType" : 5126,
            "count" : 54,
            "max" : [
                0.5272815823554993,
                0.0007563323597423732,
                0.8496906161308289,
                -1
            ],
            "min" : [
                -0.9992636442184448,
                -0.0008168198401108384,
                -0.8831157684326172,
                -1
            ],
            "type" : "VEC4"
        },
        {
            "bufferView" : 4,
            "componentType" : 5126,
            "count" : 54,
            "max" : [
                0.9297900199890137,
                0.9340500235557556
            ],
            "min" : [
                0.7642499804496765,
                0.011529982089996338
            ],
            "type" : "VEC2"
        }
    ],
    "asset" : {
        "generator" : "Khronos Blender glTF 2.0 I/O",
        "version" : "2.0"
    },
    "bufferViews" : [
        {
            "buffer" : 0,
            "byteLength" : 54,
            "byteOffset" : 0,
            "target" : 34963
        },
        {
            "buffer" : 0,
            "byteLength" : 648,
            "byteOffset" : 56,
            "target" : 34962
        },
        {
            "buffer" : 0,
            "byteLength" : 648,
            "byteOffset" : 704,
            "target" : 34962
        },
        {
            "buffer" : 0,
            "byteLength" : 864,
            "byteOffset" : 1352,
            "target" : 34962
        },
        {
            "buffer" : 0,
            "byteLength" : 432,
            "byteOffset" : 2216,
            "target" : 34962
        }
    ],
    "buffers" : [
        {
            "byteLength" : 2648,
            "uri" : "rod14.bin"
        }
    ],
    "extensions" : {},
    "images" : [
        {
            "name" : "fishing_rod_mat_baseColor",
            "uri" : "fishing_rod_mat_baseColor.png"
        }
    ],
    "materials" : [
        {
            "name" : "fishing_rod_mat",
            "pbrMetallicRoughness" : {
                "baseColorTexture" : {
                    "index" : 0
                }
            }
        }
    ],
    "meshes" : [
        {
            "extensions" : {},
            "name" : "fishing_rod_hook_0",
            "primitives" : [
                {
                    "attributes" : {
                        "NORMAL" : 2,
                        "POSITION" : 1,
                        "TANGENT" : 3,
                        "TEXCOORD_0" : 4
                    },
                    "extensions" : {},
                    "extras" : {},
                    "indices" : 0,
                    "material" : 0
                }
            ]
        }
    ],
    "nodes" : [
        {
            "extensions" : {},
            "mesh" : 0,
            "name" : "fishing_rod_hook_0",
            "rotation" : [
                -1.955777229056821e-08,
                -1.0186251842014826e-10,
                -2.561137080192566e-09,
                1
            ],
            "scale" : [
                1,
                1,
                1.0000001192092896
            ],
            "translation" : [
                2.9802322387695312e-08,
                0,
                1.1920928955078125e-07
            ]
        },
        {
            "children" : [
                0
            ],
            "extensions" : {},
            "name" : "fishing_rod_hook",
            "rotation" : [
                0.012468351051211357,
                0.1969812959432602,
                -0.00974974874407053,
                0.9802795052528381
            ],
            "scale" : [
                1.0000042915344238,
                1.0000009536743164,
                1.0000038146972656
            ],
            "translation" : [
                -0.1049858033657074,
                1.4313347339630127,
                -1.4677681922912598
            ]
        },
        {
            "children" : [
                1
            ],
            "extensions" : {},
            "name" : "Root"
        },
        {
            "children" : [
                2
            ],
            "extensions" : {},
            "name" : "RootNode (model correction matrix)"
        },
        {
            "children" : [
                3
            ],
            "extensions" : {},
            "name" : "RootNode (gltf orientation matrix)",
            "rotation" : [
                -0.7071068286895752,
                0,
                0,
                0.7071067094802856
            ],
            "scale" : [
                1,
                1.0000001192092896,
                1.0000001192092896
            ]
        },
        {
            "children" : [
                4
            ],
            "extensions" : {},
            "name" : "Yup2Zup",
            "rotation" : [
                0.7071068286895752,
                0,
                0,
                0.7071067094802856
            ],
            "scale" : [
                1,
                1.0000001192092896,
                1.0000001192092896
            ]
        }
    ],
    "samplers" : [
        {}
    ],
    "scene" : 0,
    "scenes" : [
        {
            "name" : "OSG_Scene",
            "nodes" : [
                5
            ]
        },
        {
            "name" : "Scene"
        }
    ],
    "textures" : [
        {
            "sampler" : 0,
            "source" : 0
        }
    ]
}
