{
  "accessors": [
    {
      "bufferView": 2,
      "componentType": 5126,
      "count": 164,
      "max": [
        0.045069999992847443,
        0.078089997172355652,
        2.0197598934173584
      ],
      "min": [
        -0.066880002617835999,
        -0.12296000123023987,
        -0.054030001163482666
      ],
      "type": "VEC3"
    },
    {
      "bufferView": 2,
      "byteOffset": 1968,
      "componentType": 5126,
      "count": 164,
      "max": [
        0.99965190887451172,
        0.97257530689239502,
        1
      ],
      "min": [
        -0.99971610307693481,
        -0.96882355213165283,
        -0.99882417917251587
      ],
      "type": "VEC3"
    },
    {
      "bufferView": 3,
      "componentType": 5126,
      "count": 164,
      "max": [
        0.99198216199874878,
        0.99695348739624023,
        0.79124408960342407,
        1
      ],
      "min": [
        -0.99170714616775513,
        -0.99617481231689453,
        -0.22694686055183411,
        1
      ],
      "type": "VEC4"
    },
    {
      "bufferView": 1,
      "componentType": 5126,
      "count": 164,
      "max": [
        0.72815001010894775,
        0.95197999477386475
      ],
      "min": [
        0.011529999785125256,
        0.011529999785125256
      ],
      "type": "VEC2"
    },
    {
      "bufferView": 0,
      "componentType": 5125,
      "count": 288,
      "max": [
        163
      ],
      "min": [
        0
      ],
      "type": "SCALAR"
    },
    {
      "bufferView": 2,
      "byteOffset": 3936,
      "componentType": 5126,
      "count": 114,
      "max": [
        0.019060000777244568,
        0.087870001792907715,
        9.9999997473787516e-06
      ],
      "min": [
        -0.020969999954104424,
        -0.027580000460147858,
        -1.9067000150680542
      ],
      "type": "VEC3"
    },
    {
      "bufferView": 2,
      "byteOffset": 5304,
      "componentType": 5126,
      "count": 114,
      "max": [
        0.96907389163970947,
        0.99925941228866577,
        0.99998968839645386
      ],
      "min": [
        -0.98081892728805542,
        -0.99244004487991333,
        -0.67068982124328613
      ],
      "type": "VEC3"
    },
    {
      "bufferView": 3,
      "byteOffset": 2624,
      "componentType": 5126,
      "count": 114,
      "max": [
        1,
        0.9228101372718811,
        0.88909661769866943,
        1
      ],
      "min": [
        -0.99925941228866577,
        -0.87201786041259766,
        -0.79149657487869263,
        1
      ],
      "type": "VEC4"
    },
    {
      "bufferView": 1,
      "byteOffset": 1312,
      "componentType": 5126,
      "count": 114,
      "max": [
        0.98847001791000366,
        0.93405002355575562
      ],
      "min": [
        0.53442001342773438,
        0.011529999785125256
      ],
      "type": "VEC2"
    },
    {
      "bufferView": 0,
      "byteOffset": 1152,
      "componentType": 5125,
      "count": 186,
      "max": [
        113
      ],
      "min": [
        0
      ],
      "type": "SCALAR"
    }
  ],
  "asset": {
    "extras": {
      "author": "Inuciian (https://sketchfab.com/Inuciian)",
      "license": "CC-BY-4.0 (http://creativecommons.org/licenses/by/4.0/)",
      "source": "https://sketchfab.com/models/ab78aaf5ea154edcabdc118196916ddd",
      "title": "Fishing Rod"
    },
    "generator": "Sketchfab-3.18.7",
    "version": "2.0"
  },
  "bufferViews": [
    {
      "buffer": 0,
      "byteLength": 1896,
      "byteOffset": 0,
      "name": "floatBufferViews",
      "target": 34963
    },
    {
      "buffer": 0,
      "byteLength": 2224,
      "byteOffset": 1896,
      "byteStride": 8,
      "name": "floatBufferViews",
      "target": 34962
    },
    {
      "buffer": 0,
      "byteLength": 6672,
      "byteOffset": 4120,
      "byteStride": 12,
      "name": "floatBufferViews",
      "target": 34962
    },
    {
      "buffer": 0,
      "byteLength": 4448,
      "byteOffset": 10792,
      "byteStride": 16,
      "name": "floatBufferViews",
      "target": 34962
    }
  ],
  "buffers": [
    {
      "byteLength": 15240,
      "uri": "scene.bin"
    }
  ],
  "images": [
    {
      "uri": "textures/fishing_rod_mat_baseColor.png"
    }
  ],
  "materials": [
    {
      "doubleSided": true,
      "emissiveFactor": [
        0,
        0,
        0
      ],
      "name": "fishing_rod_mat",
      "pbrMetallicRoughness": {
        "baseColorFactor": [
          1,
          1,
          1,
          1
        ],
        "baseColorTexture": {
          "index": 0,
          "texCoord": 0
        },
        "metallicFactor": 0,
        "roughnessFactor": 1
      }
    }
  ],
  "meshes": [
    {
      "name": "fishing_rod_0",
      "primitives": [
        {
          "attributes": {
            "NORMAL": 1,
            "POSITION": 0,
            "TANGENT": 2,
            "TEXCOORD_0": 3
          },
          "indices": 4,
          "material": 0,
          "mode": 4
        }
      ]
    },
    {
      "name": "fishing_rod_hook_0",
      "primitives": [
        {
          "attributes": {
            "NORMAL": 6,
            "POSITION": 5,
            "TANGENT": 7,
            "TEXCOORD_0": 8
          },
          "indices": 9,
          "material": 0,
          "mode": 4
        }
      ]
    }
  ],
  "nodes": [
    {
      "children": [
        1
      ],
      "name": "RootNode (gltf orientation matrix)",
      "rotation": [
        -0.70710678118654746,
        -0,
        -0,
        0.70710678118654757
      ]
    },
    {
      "children": [
        2
      ],
      "name": "RootNode (model correction matrix)"
    },
    {
      "children": [
        3,
        5
      ],
      "name": "Root"
    },
    {
      "children": [
        4
      ],
      "matrix": [
        0.98626999999999998,
        0.14446000000000003,
        -0.080040000000000014,
        0,
        -0.15888000000000002,
        0.69763000000000019,
        -0.69862000000000024,
        0,
        -0.045080000000000009,
        0.70174000000000014,
        0.71100000000000008,
        0,
        -2.2172800000000001,
        5.43818,
        -0.25691000000000003,
        1
      ],
      "name": "fishing_rod"
    },
    {
      "mesh": 0,
      "name": "fishing_rod_0"
    },
    {
      "children": [
        6
      ],
      "matrix": [
        0.92220999999999997,
        0.38644000000000006,
        -0.014200000000000003,
        0,
        -0.38595000000000007,
        0.92209000000000008,
        0.028290000000000003,
        0,
        0.024030000000000003,
        -0.020600000000000004,
        0.99949999999999994,
        0,
        -2.3574199999999998,
        6.8857299999999997,
        1.12748,
        1
      ],
      "name": "fishing_rod_hook"
    },
    {
      "mesh": 1,
      "name": "fishing_rod_hook_0"
    }
  ],
  "samplers": [
    {
      "magFilter": 9729,
      "minFilter": 9987,
      "wrapS": 10497,
      "wrapT": 10497
    }
  ],
  "scene": 0,
  "scenes": [
    {
      "name": "OSG_Scene",
      "nodes": [
        0
      ]
    }
  ],
  "textures": [
    {
      "sampler": 0,
      "source": 0
    }
  ]
}

