{
  "accessors": [
    {
      "bufferView": 2,
      "componentType": 5126,
      "count": 116,
      "max": [
        1.2279499769210815,
        0.14327000081539154,
        1.4500000476837158
      ],
      "min": [
        -0.90810000896453857,
        -1,
        -1.4500000476837158
      ],
      "type": "VEC3"
    },
    {
      "bufferView": 2,
      "byteOffset": 1392,
      "componentType": 5126,
      "count": 116,
      "max": [
        0.99635517597198486,
        0.9905131459236145,
        0.98223680257797241
      ],
      "min": [
        -0.99919813871383667,
        -0.99980932474136353,
        -0.98223680257797241
      ],
      "type": "VEC3"
    },
    {
      "bufferView": 3,
      "componentType": 5126,
      "count": 116,
      "max": [
        0.99974143505096436,
        0.64106959104537964,
        0.81820547580718994,
        1
      ],
      "min": [
        -0.6997026801109314,
        -0.96025002002716064,
        -0.99989891052246094,
        -1
      ],
      "type": "VEC4"
    },
    {
      "bufferView": 1,
      "componentType": 5126,
      "count": 116,
      "max": [
        0.98593002557754517,
        0.98593002557754517
      ],
      "min": [
        0.014069999568164349,
        0.014069999568164349
      ],
      "type": "VEC2"
    },
    {
      "bufferView": 0,
      "componentType": 5125,
      "count": 756,
      "max": [
        115
      ],
      "min": [
        0
      ],
      "type": "SCALAR"
    },
    {
      "bufferView": 2,
      "byteOffset": 2784,
      "componentType": 5126,
      "count": 7728,
      "max": [
        1.9738199710845947,
        0.042139999568462372,
        0.63186997175216675
      ],
      "min": [
        -2.5875198841094971,
        -0.042139999568462372,
        -0.060679998248815536
      ],
      "type": "VEC3"
    },
    {
      "bufferView": 2,
      "byteOffset": 95520,
      "componentType": 5126,
      "count": 7728,
      "max": [
        0.99977570772171021,
        0.99754518270492554,
        1
      ],
      "min": [
        -0.99978011846542358,
        -0.99754518270492554,
        -1
      ],
      "type": "VEC3"
    },
    {
      "bufferView": 0,
      "byteOffset": 3024,
      "componentType": 5125,
      "count": 44214,
      "max": [
        7727
      ],
      "min": [
        0
      ],
      "type": "SCALAR"
    },
    {
      "bufferView": 2,
      "byteOffset": 188256,
      "componentType": 5126,
      "count": 482,
      "max": [
        1,
        1,
        1
      ],
      "min": [
        -1,
        -1,
        -1
      ],
      "type": "VEC3"
    },
    {
      "bufferView": 2,
      "byteOffset": 194040,
      "componentType": 5126,
      "count": 482,
      "max": [
        1,
        1,
        1
      ],
      "min": [
        -1,
        -1,
        -1
      ],
      "type": "VEC3"
    },
    {
      "bufferView": 0,
      "byteOffset": 179880,
      "componentType": 5125,
      "count": 2880,
      "max": [
        481
      ],
      "min": [
        0
      ],
      "type": "SCALAR"
    },
    {
      "bufferView": 2,
      "byteOffset": 199824,
      "componentType": 5126,
      "count": 1536,
      "max": [
        1,
        60.966079711914062,
        1.1019400358200073
      ],
      "min": [
        -1,
        -60.965930938720703,
        -2.2310800552368164
      ],
      "type": "VEC3"
    },
    {
      "bufferView": 2,
      "byteOffset": 218256,
      "componentType": 5126,
      "count": 1536,
      "max": [
        0.99999874830245972,
        0.98666554689407349,
        1
      ],
      "min": [
        -0.99999874830245972,
        -0.98666483163833618,
        -1
      ],
      "type": "VEC3"
    },
    {
      "bufferView": 0,
      "byteOffset": 191400,
      "componentType": 5125,
      "count": 9168,
      "max": [
        1535
      ],
      "min": [
        0
      ],
      "type": "SCALAR"
    },
    {
      "bufferView": 2,
      "byteOffset": 236688,
      "componentType": 5126,
      "count": 24,
      "max": [
        2.6726999282836914,
        1.043910026550293,
        4.5203900337219238
      ],
      "min": [
        -3.165179967880249,
        -1.0801800489425659,
        -6.8558697700500488
      ],
      "type": "VEC3"
    },
    {
      "bufferView": 2,
      "byteOffset": 236976,
      "componentType": 5126,
      "count": 24,
      "max": [
        0.56233811378479004,
        0.72012192010879517,
        0.66466516256332397
      ],
      "min": [
        -0.80577480792999268,
        -0.72776609659194946,
        -0.66465026140213013
      ],
      "type": "VEC3"
    },
    {
      "bufferView": 3,
      "byteOffset": 1856,
      "componentType": 5126,
      "count": 24,
      "max": [
        0.56933361291885376,
        0.48004478216171265,
        0.83199775218963623,
        1
      ],
      "min": [
        -0.46165305376052856,
        -0.98480695486068726,
        -0.83276253938674927,
        -1
      ],
      "type": "VEC4"
    },
    {
      "bufferView": 1,
      "byteOffset": 928,
      "componentType": 5126,
      "count": 24,
      "max": [
        1.1184099912643433,
        1.4965100288391113
      ],
      "min": [
        -0.11840999871492386,
        -0.49650999903678894
      ],
      "type": "VEC2"
    },
    {
      "bufferView": 0,
      "byteOffset": 228072,
      "componentType": 5125,
      "count": 108,
      "max": [
        23
      ],
      "min": [
        0
      ],
      "type": "SCALAR"
    },
    {
      "bufferView": 2,
      "byteOffset": 237264,
      "componentType": 5126,
      "count": 108,
      "max": [
        0.69584000110626221,
        0.95196998119354248,
        0.042080000042915344
      ],
      "min": [
        -0.69584000110626221,
        -0.99936002492904663,
        -0.144119992852211
      ],
      "type": "VEC3"
    },
    {
      "bufferView": 2,
      "byteOffset": 238560,
      "componentType": 5126,
      "count": 108,
      "max": [
        0.96053117513656616,
        0.98254764080047607,
        0.99557477235794067
      ],
      "min": [
        -0.96053117513656616,
        -0.92989683151245117,
        -0.99818575382232666
      ],
      "type": "VEC3"
    },
    {
      "bufferView": 0,
      "byteOffset": 228504,
      "componentType": 5125,
      "count": 636,
      "max": [
        107
      ],
      "min": [
        0
      ],
      "type": "SCALAR"
    },
    {
      "bufferView": 2,
      "byteOffset": 239856,
      "componentType": 5126,
      "count": 64,
      "max": [
        1,
        1,
        1
      ],
      "min": [
        -1,
        -1,
        -1
      ],
      "type": "VEC3"
    },
    {
      "bufferView": 2,
      "byteOffset": 240624,
      "componentType": 5126,
      "count": 64,
      "max": [
        0.72788256406784058,
        0.72788256406784058,
        0.68571722507476807
      ],
      "min": [
        -0.72788256406784058,
        -0.72788256406784058,
        -0.68571722507476807
      ],
      "type": "VEC3"
    },
    {
      "bufferView": 0,
      "byteOffset": 231048,
      "componentType": 5125,
      "count": 372,
      "max": [
        63
      ],
      "min": [
        0
      ],
      "type": "SCALAR"
    },
    {
      "bufferView": 2,
      "byteOffset": 241392,
      "componentType": 5126,
      "count": 576,
      "max": [
        1.453510046005249,
        1.453510046005249,
        0.45350000262260437
      ],
      "min": [
        -1.453510046005249,
        -1.453510046005249,
        -0.45350000262260437
      ],
      "type": "VEC3"
    },
    {
      "bufferView": 2,
      "byteOffset": 248304,
      "componentType": 5126,
      "count": 576,
      "max": [
        1,
        1,
        0.99988347291946411
      ],
      "min": [
        -1,
        -1,
        -0.99988347291946411
      ],
      "type": "VEC3"
    },
    {
      "bufferView": 0,
      "byteOffset": 232536,
      "componentType": 5125,
      "count": 3456,
      "max": [
        575
      ],
      "min": [
        0
      ],
      "type": "SCALAR"
    },
    {
      "bufferView": 2,
      "byteOffset": 255216,
      "componentType": 5126,
      "count": 576,
      "max": [
        1.453510046005249,
        1.453510046005249,
        0.45350000262260437
      ],
      "min": [
        -1.453510046005249,
        -1.453510046005249,
        -0.45350000262260437
      ],
      "type": "VEC3"
    },
    {
      "bufferView": 2,
      "byteOffset": 262128,
      "componentType": 5126,
      "count": 576,
      "max": [
        1,
        1,
        0.99988347291946411
      ],
      "min": [
        -1,
        -1,
        -0.99988347291946411
      ],
      "type": "VEC3"
    },
    {
      "bufferView": 0,
      "byteOffset": 246360,
      "componentType": 5125,
      "count": 3456,
      "max": [
        575
      ],
      "min": [
        0
      ],
      "type": "SCALAR"
    },
    {
      "bufferView": 2,
      "byteOffset": 269040,
      "componentType": 5126,
      "count": 64,
      "max": [
        1,
        1,
        1
      ],
      "min": [
        -1,
        -1,
        -1
      ],
      "type": "VEC3"
    },
    {
      "bufferView": 2,
      "byteOffset": 269808,
      "componentType": 5126,
      "count": 64,
      "max": [
        0.72788256406784058,
        0.72788256406784058,
        0.68571722507476807
      ],
      "min": [
        -0.72788256406784058,
        -0.72788256406784058,
        -0.68571722507476807
      ],
      "type": "VEC3"
    },
    {
      "bufferView": 0,
      "byteOffset": 260184,
      "componentType": 5125,
      "count": 372,
      "max": [
        63
      ],
      "min": [
        0
      ],
      "type": "SCALAR"
    },
    {
      "bufferView": 2,
      "byteOffset": 270576,
      "componentType": 5126,
      "count": 108,
      "max": [
        0.69584000110626221,
        0.95196998119354248,
        0.042080000042915344
      ],
      "min": [
        -0.69584000110626221,
        -0.99936002492904663,
        -0.144119992852211
      ],
      "type": "VEC3"
    },
    {
      "bufferView": 2,
      "byteOffset": 271872,
      "componentType": 5126,
      "count": 108,
      "max": [
        0.96053117513656616,
        0.98254764080047607,
        0.99557477235794067
      ],
      "min": [
        -0.96053117513656616,
        -0.92989683151245117,
        -0.99818575382232666
      ],
      "type": "VEC3"
    },
    {
      "bufferView": 0,
      "byteOffset": 261672,
      "componentType": 5125,
      "count": 636,
      "max": [
        107
      ],
      "min": [
        0
      ],
      "type": "SCALAR"
    }
  ],
  "asset": {
    "extras": {
      "author": "supermiha2011 (https://sketchfab.com/supermiha2011)",
      "license": "CC-BY-4.0 (http://creativecommons.org/licenses/by/4.0/)",
      "source": "https://sketchfab.com/models/b11316ffca09440e80f69cbc1505ef86",
      "title": "Wooden boat with paddles"
    },
    "generator": "Sketchfab-3.20.7",
    "version": "2.0"
  },
  "bufferViews": [
    {
      "buffer": 0,
      "byteLength": 264216,
      "byteOffset": 0,
      "name": "floatBufferViews",
      "target": 34963
    },
    {
      "buffer": 0,
      "byteLength": 1120,
      "byteOffset": 264216,
      "byteStride": 8,
      "name": "floatBufferViews",
      "target": 34962
    },
    {
      "buffer": 0,
      "byteLength": 273168,
      "byteOffset": 265336,
      "byteStride": 12,
      "name": "floatBufferViews",
      "target": 34962
    },
    {
      "buffer": 0,
      "byteLength": 2240,
      "byteOffset": 538504,
      "byteStride": 16,
      "name": "floatBufferViews",
      "target": 34962
    }
  ],
  "buffers": [
    {
      "byteLength": 540744,
      "uri": "scene.bin"
    }
  ],
  "extensionsRequired": [
    "KHR_materials_pbrSpecularGlossiness"
  ],
  "extensionsUsed": [
    "KHR_materials_pbrSpecularGlossiness"
  ],
  "images": [
    {
      "uri": "textures/Material.001_diffuse.jpeg"
    },
    {
      "uri": "textures/Material_diffuse.jpeg"
    }
  ],
  "materials": [
    {
      "doubleSided": true,
      "emissiveFactor": [
        0,
        0,
        0
      ],
      "extensions": {
        "KHR_materials_pbrSpecularGlossiness": {
          "diffuseFactor": [
            0.0044559921839999999,
            0.0066981669509999994,
            0.047662833434999996,
            1
          ],
          "glossinessFactor": 0.39000000000000001,
          "specularFactor": [
            0.0033950416639999996,
            0.005103365296,
            0.03631453976
          ]
        }
      },
      "name": "Material.005"
    },
    {
      "doubleSided": true,
      "emissiveFactor": [
        0,
        0,
        0
      ],
      "extensions": {
        "KHR_materials_pbrSpecularGlossiness": {
          "diffuseFactor": [
            0.068136903959999995,
            0.018869716961999999,
            0.0045732200099999993,
            1
          ],
          "glossinessFactor": 0,
          "specularFactor": [
            0,
            0,
            0
          ]
        }
      },
      "name": "Material.002"
    },
    {
      "doubleSided": true,
      "emissiveFactor": [
        0,
        0,
        0
      ],
      "extensions": {
        "KHR_materials_pbrSpecularGlossiness": {
          "diffuseFactor": [
            1,
            1,
            1,
            1
          ],
          "diffuseTexture": {
            "index": 0,
            "texCoord": 0
          },
          "glossinessFactor": 0,
          "specularFactor": [
            0,
            0,
            0
          ]
        }
      },
      "name": "Material.001"
    },
    {
      "doubleSided": true,
      "emissiveFactor": [
        0,
        0,
        0
      ],
      "extensions": {
        "KHR_materials_pbrSpecularGlossiness": {
          "diffuseFactor": [
            0,
            0,
            0,
            1
          ],
          "glossinessFactor": 0.71999999999999997,
          "specularFactor": [
            0.62,
            0.62,
            0.62
          ]
        }
      },
      "name": "DarkMetal"
    },
    {
      "doubleSided": true,
      "emissiveFactor": [
        0,
        0,
        0
      ],
      "extensions": {
        "KHR_materials_pbrSpecularGlossiness": {
          "diffuseFactor": [
            1,
            1,
            1,
            1
          ],
          "diffuseTexture": {
            "index": 1,
            "texCoord": 0
          },
          "glossinessFactor": 0,
          "specularFactor": [
            0,
            0,
            0
          ]
        }
      },
      "name": "Material"
    }
  ],
  "meshes": [
    {
      "name": "Plane_0",
      "primitives": [
        {
          "attributes": {
            "NORMAL": 1,
            "POSITION": 0,
            "TANGENT": 2,
            "TEXCOORD_0": 3
          },
          "indices": 4,
          "material": 4,
          "mode": 4
        }
      ]
    },
    {
      "name": "NurbsPath_0",
      "primitives": [
        {
          "attributes": {
            "NORMAL": 6,
            "POSITION": 5
          },
          "indices": 7,
          "material": 1,
          "mode": 4
        }
      ]
    },
    {
      "name": "Sphere_0",
      "primitives": [
        {
          "attributes": {
            "NORMAL": 9,
            "POSITION": 8
          },
          "indices": 10,
          "material": 1,
          "mode": 4
        }
      ]
    },
    {
      "name": "Cylinder.001_0",
      "primitives": [
        {
          "attributes": {
            "NORMAL": 12,
            "POSITION": 11
          },
          "indices": 13,
          "material": 3,
          "mode": 4
        }
      ]
    },
    {
      "name": "Cube.002_0",
      "primitives": [
        {
          "attributes": {
            "NORMAL": 15,
            "POSITION": 14,
            "TANGENT": 16,
            "TEXCOORD_0": 17
          },
          "indices": 18,
          "material": 2,
          "mode": 4
        }
      ]
    },
    {
      "name": "Plane.001_0",
      "primitives": [
        {
          "attributes": {
            "NORMAL": 20,
            "POSITION": 19
          },
          "indices": 21,
          "material": 0,
          "mode": 4
        }
      ]
    },
    {
      "name": "Cylinder_0",
      "primitives": [
        {
          "attributes": {
            "NORMAL": 23,
            "POSITION": 22
          },
          "indices": 24,
          "material": 1,
          "mode": 4
        }
      ]
    },
    {
      "name": "Torus_0",
      "primitives": [
        {
          "attributes": {
            "NORMAL": 26,
            "POSITION": 25
          },
          "indices": 27,
          "material": 1,
          "mode": 4
        }
      ]
    },
    {
      "name": "Torus.001_0",
      "primitives": [
        {
          "attributes": {
            "NORMAL": 29,
            "POSITION": 28
          },
          "indices": 30,
          "material": 1,
          "mode": 4
        }
      ]
    },
    {
      "name": "Cylinder.002_0",
      "primitives": [
        {
          "attributes": {
            "NORMAL": 32,
            "POSITION": 31
          },
          "indices": 33,
          "material": 1,
          "mode": 4
        }
      ]
    },
    {
      "name": "Plane.002_0",
      "primitives": [
        {
          "attributes": {
            "NORMAL": 35,
            "POSITION": 34
          },
          "indices": 36,
          "material": 0,
          "mode": 4
        }
      ]
    }
  ],
  "nodes": [
    {
      "children": [
        1
      ],
      "name": "RootNode (gltf orientation matrix)",
      "rotation": [
        -0.70710678118654746,
        -0,
        -0,
        0.70710678118654757
      ]
    },
    {
      "children": [
        2
      ],
      "name": "RootNode (model correction matrix)"
    },
    {
      "children": [
        3,
        5,
        7,
        9,
        11,
        13,
        15,
        17,
        19,
        21,
        23
      ],
      "name": "Root"
    },
    {
      "children": [
        4
      ],
      "matrix": [
        6.4204099999999995,
        0,
        0,
        0,
        0,
        0,
        1.7525500000000003,
        0,
        0,
        -1.7525500000000003,
        0,
        0,
        0,
        0,
        0,
        1
      ],
      "name": "Plane"
    },
    {
      "mesh": 0,
      "name": "Plane_0"
    },
    {
      "children": [
        6
      ],
      "matrix": [
        2.9519899999999999,
        0,
        0,
        0,
        0,
        2.9519899999999999,
        0,
        0,
        0,
        0,
        2.9519899999999999,
        0,
        2.0833400000000002,
        0,
        -1.6727300000000001,
        1
      ],
      "name": "NurbsPath"
    },
    {
      "mesh": 1,
      "name": "NurbsPath_0"
    },
    {
      "children": [
        8
      ],
      "matrix": [
        0.14830000000000002,
        0,
        0,
        0,
        0,
        0.14830000000000002,
        0,
        0,
        0,
        0,
        0.14830000000000002,
        0,
        7.77813,
        -0.0012500000000000002,
        0.16829000000000005,
        1
      ],
      "name": "Sphere"
    },
    {
      "mesh": 2,
      "name": "Sphere_0"
    },
    {
      "children": [
        10
      ],
      "matrix": [
        0.041490000000000006,
        0,
        0,
        0,
        0,
        0.041490000000000006,
        0,
        0,
        0,
        0,
        0.068520000000000025,
        0,
        0,
        0.0022900000000000008,
        0.31874000000000002,
        1
      ],
      "name": "Cylinder.001"
    },
    {
      "mesh": 3,
      "name": "Cylinder.001_0"
    },
    {
      "children": [
        12
      ],
      "matrix": [
        -2.0298799999999999,
        0,
        0,
        0,
        0,
        -2.0298799999999999,
        0,
        0,
        0,
        0,
        -0.036670000000000008,
        0,
        1.0505100000000001,
        -0.034510000000000013,
        -0.21475000000000002,
        1
      ],
      "name": "Cube.002"
    },
    {
      "mesh": 4,
      "name": "Cube.002_0"
    },
    {
      "children": [
        14
      ],
      "matrix": [
        0.034420000000000006,
        -0.3355200000000001,
        0.51012999999999997,
        0,
        -0.94630999999999998,
        0.57661000000000007,
        0.44309000000000004,
        0,
        -0.60672000000000015,
        -0.68232000000000015,
        -0.40784000000000004,
        0,
        3.5646200000000001,
        -4.6275299999999984,
        -1.3332599999999999,
        1
      ],
      "name": "Plane.001"
    },
    {
      "mesh": 5,
      "name": "Plane.001_0"
    },
    {
      "children": [
        16
      ],
      "matrix": [
        0.0036800000000000014,
        -0.035890000000000005,
        0.054570000000000014,
        0,
        0.03969000000000001,
        0.044640000000000013,
        0.026680000000000006,
        0,
        -2.3583699999999999,
        1.4370099999999999,
        1.1042700000000001,
        0,
        1.3283400000000001,
        -3.1918499999999996,
        -0.23810000000000001,
        1
      ],
      "name": "Cylinder"
    },
    {
      "mesh": 6,
      "name": "Cylinder_0"
    },
    {
      "children": [
        18
      ],
      "matrix": [
        -0.0042900000000000004,
        0.041800000000000011,
        -0.063550000000000009,
        0,
        -0.046220000000000011,
        -0.051980000000000005,
        -0.031070000000000007,
        0,
        0.060400000000000009,
        -0.036810000000000009,
        -0.028280000000000003,
        0,
        -1.0023899999999999,
        -1.7707100000000002,
        0.85386000000000006,
        1
      ],
      "name": "Torus"
    },
    {
      "mesh": 7,
      "name": "Torus_0"
    },
    {
      "children": [
        20
      ],
      "matrix": [
        0.030070000000000006,
        -0.0037700000000000012,
        0.069890000000000022,
        0,
        -0.015650000000000004,
        0.073780000000000012,
        0.010710000000000003,
        0,
        0.068220000000000031,
        0.018580000000000003,
        -0.028350000000000007,
        0,
        -1.31141,
        2.05321,
        0.92890000000000006,
        1
      ],
      "name": "Torus.001"
    },
    {
      "mesh": 8,
      "name": "Torus.001_0"
    },
    {
      "children": [
        22
      ],
      "matrix": [
        -0.025820000000000003,
        0.0032300000000000011,
        -0.060020000000000011,
        0,
        0.013440000000000002,
        -0.063360000000000014,
        -0.0092000000000000033,
        0,
        -2.66364,
        -0.72545999999999999,
        1.1068100000000001,
        0,
        1.32145,
        2.7712399999999997,
        -0.16507000000000002,
        1
      ],
      "name": "Cylinder.002"
    },
    {
      "mesh": 9,
      "name": "Cylinder.002_0"
    },
    {
      "children": [
        24
      ],
      "matrix": [
        -0.24138000000000001,
        0.030240000000000003,
        -0.56108000000000002,
        0,
        -1.0688,
        -0.29110000000000003,
        0.44412000000000007,
        0,
        -0.20538000000000001,
        0.96854000000000007,
        0.14056000000000002,
        0,
        3.8805300000000003,
        3.53938,
        -1.2245999999999999,
        1
      ],
      "name": "Plane.002"
    },
    {
      "mesh": 10,
      "name": "Plane.002_0"
    }
  ],
  "samplers": [
    {
      "magFilter": 9729,
      "minFilter": 9987,
      "wrapS": 10497,
      "wrapT": 10497
    }
  ],
  "scene": 0,
  "scenes": [
    {
      "name": "OSG_Scene",
      "nodes": [
        0
      ]
    }
  ],
  "textures": [
    {
      "sampler": 0,
      "source": 0
    },
    {
      "sampler": 0,
      "source": 1
    }
  ]
}

