{
  "accessors": [
    {
      "bufferView": 1,
      "componentType": 5126,
      "count": 4540,
      "max": [
        118.83243560791016,
        48.193050384521484,
        53.342548370361328
      ],
      "min": [
        -62.160942077636719,
        -32.66754150390625,
        -1.1647050380706787
      ],
      "type": "VEC3"
    },
    {
      "bufferView": 1,
      "byteOffset": 54480,
      "componentType": 5126,
      "count": 4540,
      "max": [
        0.99914085865020752,
        0.99971312284469604,
        0.99997377395629883
      ],
      "min": [
        -0.999977707862854,
        -0.99990659952163696,
        -0.99997377395629883
      ],
      "type": "VEC3"
    },
    {
      "bufferView": 2,
      "componentType": 5126,
      "count": 4540,
      "max": [
        0.99999791383743286,
        0.9999997615814209,
        0.9953615665435791,
        1
      ],
      "min": [
        -0.99996238946914673,
        -0.999977707862854,
        -0.98597705364227295,
        -1
      ],
      "type": "VEC4"
    },
    {
      "bufferView": 0,
      "componentType": 5125,
      "count": 25152,
      "max": [
        4539
      ],
      "min": [
        0
      ],
      "type": "SCALAR"
    },
    {
      "bufferView": 1,
      "byteOffset": 108960,
      "componentType": 5126,
      "count": 559,
      "max": [
        7.8386030197143555,
        7.8386030197143555,
        7.8386030197143555
      ],
      "min": [
        -7.8386030197143555,
        -7.8386030197143555,
        -7.8386030197143555
      ],
      "type": "VEC3"
    },
    {
      "bufferView": 1,
      "byteOffset": 115668,
      "componentType": 5126,
      "count": 559,
      "max": [
        1,
        1,
        1
      ],
      "min": [
        -1,
        -1,
        -1
      ],
      "type": "VEC3"
    },
    {
      "bufferView": 2,
      "byteOffset": 72640,
      "componentType": 5126,
      "count": 559,
      "max": [
        1,
        1,
        0.049125675112009048,
        1
      ],
      "min": [
        -1,
        -1,
        -0.049125686287879944,
        1
      ],
      "type": "VEC4"
    },
    {
      "bufferView": 0,
      "byteOffset": 100608,
      "componentType": 5125,
      "count": 2880,
      "max": [
        558
      ],
      "min": [
        0
      ],
      "type": "SCALAR"
    },
    {
      "bufferView": 1,
      "byteOffset": 122376,
      "componentType": 5126,
      "count": 559,
      "max": [
        7.8386030197143555,
        7.8386030197143555,
        7.8386030197143555
      ],
      "min": [
        -7.8386030197143555,
        -7.8386030197143555,
        -7.8386030197143555
      ],
      "type": "VEC3"
    },
    {
      "bufferView": 1,
      "byteOffset": 129084,
      "componentType": 5126,
      "count": 559,
      "max": [
        1,
        1,
        1
      ],
      "min": [
        -1,
        -1,
        -1
      ],
      "type": "VEC3"
    },
    {
      "bufferView": 2,
      "byteOffset": 81584,
      "componentType": 5126,
      "count": 559,
      "max": [
        1,
        1,
        0.049125675112009048,
        1
      ],
      "min": [
        -1,
        -1,
        -0.049125686287879944,
        1
      ],
      "type": "VEC4"
    },
    {
      "bufferView": 0,
      "byteOffset": 112128,
      "componentType": 5125,
      "count": 2880,
      "max": [
        558
      ],
      "min": [
        0
      ],
      "type": "SCALAR"
    }
  ],
  "asset": {
    "extras": {
      "author": "james214 (https://sketchfab.com/james214)",
      "license": "CC-BY-4.0 (http://creativecommons.org/licenses/by/4.0/)",
      "source": "https://sketchfab.com/models/9b526e5788a043a6835309ac2b64ddaa",
      "title": "Fish"
    },
    "generator": "Sketchfab-3.18.2",
    "version": "2.0"
  },
  "bufferViews": [
    {
      "buffer": 0,
      "byteLength": 123648,
      "byteOffset": 0,
      "name": "floatBufferViews",
      "target": 34963
    },
    {
      "buffer": 0,
      "byteLength": 135792,
      "byteOffset": 123648,
      "byteStride": 12,
      "name": "floatBufferViews",
      "target": 34962
    },
    {
      "buffer": 0,
      "byteLength": 90528,
      "byteOffset": 259440,
      "byteStride": 16,
      "name": "floatBufferViews",
      "target": 34962
    }
  ],
  "buffers": [
    {
      "byteLength": 349968,
      "uri": "scene.bin"
    }
  ],
  "materials": [
    {
      "doubleSided": true,
      "emissiveFactor": [
        0,
        0,
        0
      ],
      "name": "RootNode",
      "pbrMetallicRoughness": {
        "baseColorFactor": [
          0.5,
          0.5,
          0.5,
          1
        ],
        "metallicFactor": 0,
        "roughnessFactor": 0.59999999999999998
      }
    },
    {
      "doubleSided": true,
      "emissiveFactor": [
        0,
        0,
        0
      ],
      "name": "01_-_Default",
      "pbrMetallicRoughness": {
        "baseColorFactor": [
          0.972549,
          0.93725499999999995,
          0,
          1
        ],
        "metallicFactor": 0,
        "roughnessFactor": 0.59999999999999998
      }
    }
  ],
  "meshes": [
    {
      "name": "Box001_01 - Default_0",
      "primitives": [
        {
          "attributes": {
            "NORMAL": 1,
            "POSITION": 0,
            "TANGENT": 2
          },
          "indices": 3,
          "material": 1,
          "mode": 4
        }
      ]
    },
    {
      "name": "Sphere001__0",
      "primitives": [
        {
          "attributes": {
            "NORMAL": 5,
            "POSITION": 4,
            "TANGENT": 6
          },
          "indices": 7,
          "material": 0,
          "mode": 4
        }
      ]
    },
    {
      "name": "Sphere002__0",
      "primitives": [
        {
          "attributes": {
            "NORMAL": 9,
            "POSITION": 8,
            "TANGENT": 10
          },
          "indices": 11,
          "material": 0,
          "mode": 4
        }
      ]
    }
  ],
  "nodes": [
    {
      "children": [
        1
      ],
      "name": "RootNode (gltf orientation matrix)",
      "rotation": [
        -0.70710678118654746,
        -0,
        -0,
        0.70710678118654757
      ]
    },
    {
      "children": [
        2
      ],
      "name": "RootNode (model correction matrix)"
    },
    {
      "children": [
        3
      ],
      "matrix": [
        1,
        0,
        0,
        0,
        0,
        0,
        1,
        0,
        0,
        -1,
        0,
        0,
        0,
        0,
        0,
        1
      ],
      "name": "5f47dc02aed14782a9efcd27a503d5c3.fbx"
    },
    {
      "children": [
        4,
        7,
        9
      ],
      "name": "RootNode"
    },
    {
      "children": [
        5
      ],
      "matrix": [
        1,
        0,
        0,
        0,
        0,
        0.99999999999998668,
        1.6292068494294582e-07,
        0,
        0,
        -1.6292068494294582e-07,
        0.99999999999998668,
        0,
        -36.509483337402344,
        39.520172119140625,
        0,
        1
      ],
      "name": "Box001"
    },
    {
      "children": [
        6
      ],
      "matrix": [
        1,
        0,
        -0,
        0,
        0,
        1,
        0,
        0,
        0,
        0,
        1,
        0,
        0,
        -4.3572771346589434e-07,
        -26.088920593261719,
        1
      ],
      "name": ""
    },
    {
      "mesh": 0,
      "name": "Box001_01 - Default_0"
    },
    {
      "children": [
        8
      ],
      "matrix": [
        0.92793923616409302,
        0,
        0,
        0,
        0,
        0.92793923616408069,
        1.5118050109238554e-07,
        0,
        0,
        -1.5118050109238554e-07,
        0.92793923616408069,
        0,
        -67.802291870117188,
        50.569438934326172,
        14.462400436401367,
        1
      ],
      "name": "Sphere001"
    },
    {
      "mesh": 1,
      "name": "Sphere001__0"
    },
    {
      "children": [
        10
      ],
      "matrix": [
        0.92793923616409302,
        0,
        0,
        0,
        0,
        0.92793923616408069,
        1.5118050109238554e-07,
        0,
        0,
        -1.5118050109238554e-07,
        0.92793923616408069,
        0,
        -67.802291870117188,
        50.569438934326172,
        -14.147698402404785,
        1
      ],
      "name": "Sphere002"
    },
    {
      "mesh": 2,
      "name": "Sphere002__0"
    }
  ],
  "scene": 0,
  "scenes": [
    {
      "name": "OSG_Scene",
      "nodes": [
        0
      ]
    }
  ]
}

