{"asset":{"generator":"Modov11.2","version":"2.0"},"scene":0,"scenes":[{"nodes":[0,1,2]}],"nodes":[{"name":"Fortress","matrix":[-1.0,-1.8988214981889878e-15,-2.384976127700611e-8,0.0,-2.384976127700611e-8,-6.12323823339278e-17,1.0,0.0,-1.8988214981889878e-15,1.0,6.123234262925839e-17,0.0,0.171167254447937,2.1835591793060304,0.2359071671962738,1.0],"mesh":0},{"name":"Sky","matrix":[1.0,0.0,0.0,0.0,0.0,6.123234262925839e-17,-1.0,0.0,0.0,1.0,6.123234262925839e-17,0.0,0.0,0.0,0.0,1.0],"mesh":1},{"name":"Camera","matrix":[1.0,0.0,0.0,0.0,0.0,0.9961947202682495,-0.08715574443340302,0.0,0.0,0.08715574443340302,0.9961947202682495,0.0,0.0,0.75,4.0,1.0],"camera":0}],"meshes":[{"primitives":[{"indices":1,"mode":4,"material":1,"attributes":{"POSITION":0,"NORMAL":2,"COLOR_0":3,"TEXCOORD_0":4,"TEXCOORD_1":5}},{"indices":7,"mode":4,"material":2,"attributes":{"POSITION":6,"NORMAL":8,"COLOR_0":9,"TEXCOORD_0":10,"TEXCOORD_1":11}},{"indices":13,"mode":4,"material":3,"attributes":{"POSITION":12,"NORMAL":14,"COLOR_0":15,"TEXCOORD_0":16,"TEXCOORD_1":17}}]},{"primitives":[{"indices":19,"mode":4,"material":4,"attributes":{"POSITION":18,"NORMAL":20,"TEXCOORD_0":21}}]}],"buffers":[{"byteLength":14835436,"uri":"Stronghold.bin"}],"bufferViews":[{"buffer":0,"byteLength":3744},{"buffer":0,"byteLength":3228,"byteOffset":3744},{"buffer":0,"byteLength":3744,"byteOffset":6972},{"buffer":0,"byteLength":4992,"byteOffset":10716},{"buffer":0,"byteLength":2496,"byteOffset":15708},{"buffer":0,"byteLength":2496,"byteOffset":18204},{"buffer":0,"byteLength":2335608,"byteOffset":20700},{"buffer":0,"byteLength":1540764,"byteOffset":2356308},{"buffer":0,"byteLength":2335608,"byteOffset":3897072},{"buffer":0,"byteLength":3114144,"byteOffset":6232680},{"buffer":0,"byteLength":1557072,"byteOffset":9346824},{"buffer":0,"byteLength":1557072,"byteOffset":10903896},{"buffer":0,"byteLength":404700,"byteOffset":12460968},{"buffer":0,"byteLength":472476,"byteOffset":12865668},{"buffer":0,"byteLength":404700,"byteOffset":13338144},{"buffer":0,"byteLength":539600,"byteOffset":13742844},{"buffer":0,"byteLength":269800,"byteOffset":14282444},{"buffer":0,"byteLength":269800,"byteOffset":14552244},{"buffer":0,"byteLength":3132,"byteOffset":14822044},{"buffer":0,"byteLength":5040,"byteOffset":14825176},{"buffer":0,"byteLength":3132,"byteOffset":14830216},{"buffer":0,"byteLength":2088,"byteOffset":14833348}],"accessors":[{"bufferView":0,"type":"VEC3","componentType":5126,"count":312,"min":[-8.227373123168946,-8.522247314453125,-2.5962631702423097],"max":[8.423124313354493,8.12824821472168,-2.292532205581665]},{"bufferView":1,"type":"SCALAR","componentType":5125,"count":807},{"bufferView":2,"type":"VEC3","componentType":5126,"count":312},{"bufferView":3,"type":"VEC4","componentType":5126,"count":312},{"bufferView":4,"type":"VEC2","componentType":5126,"count":312},{"bufferView":5,"type":"VEC2","componentType":5126,"count":312},{"bufferView":6,"type":"VEC3","componentType":5126,"count":194634,"min":[-2.0854504108428957,-2.09759259223938,-2.5532491207122804],"max":[2.1294503211975099,3.3024847507476808,1.5904207229614258]},{"bufferView":7,"type":"SCALAR","componentType":5125,"count":385191},{"bufferView":8,"type":"VEC3","componentType":5126,"count":194634},{"bufferView":9,"type":"VEC4","componentType":5126,"count":194634},{"bufferView":10,"type":"VEC2","componentType":5126,"count":194634},{"bufferView":11,"type":"VEC2","componentType":5126,"count":194634},{"bufferView":12,"type":"VEC3","componentType":5126,"count":33725,"min":[-4.225919246673584,-4.738073825836182,-3.1177327632904054],"max":[4.602969646453857,4.422764778137207,0.17914779484272004]},{"bufferView":13,"type":"SCALAR","componentType":5125,"count":118119},{"bufferView":14,"type":"VEC3","componentType":5126,"count":33725},{"bufferView":15,"type":"VEC4","componentType":5126,"count":33725},{"bufferView":16,"type":"VEC2","componentType":5126,"count":33725},{"bufferView":17,"type":"VEC2","componentType":5126,"count":33725},{"bufferView":18,"type":"VEC3","componentType":5126,"count":261,"min":[-8.385533332824707,-8.3847074508667,-0.1954614222049713],"max":[8.423356056213379,8.424181938171387,8.208985328674317]},{"bufferView":19,"type":"SCALAR","componentType":5125,"count":1260},{"bufferView":20,"type":"VEC3","componentType":5126,"count":261},{"bufferView":21,"type":"VEC2","componentType":5126,"count":261}],"materials":[{"pbrMetallicRoughness":{"metallicFactor":0.5,"roughnessFactor":0.5}},{"name":"Sand","emissiveFactor":[0.0,0.0,0.0],"alphaMode":"OPAQUE","doubleSided":false,"pbrMetallicRoughness":{"baseColorFactor":[1.0,1.0,1.0,1.0],"metallicFactor":1.0,"roughnessFactor":1.0}},{"name":"Fortress","emissiveFactor":[0.0,0.0,0.0],"alphaMode":"OPAQUE","doubleSided":false,"pbrMetallicRoughness":{"baseColorFactor":[1.0,1.0,1.0,1.0],"metallicFactor":1.0,"roughnessFactor":1.0}},{"name":"Environment","emissiveFactor":[0.0,0.0,0.0],"alphaMode":"OPAQUE","doubleSided":false,"pbrMetallicRoughness":{"baseColorFactor":[1.0,1.0,1.0,1.0],"metallicFactor":1.0,"roughnessFactor":1.0}},{"name":"Sky","emissiveFactor":[0.0,0.0,0.0],"alphaMode":"OPAQUE","doubleSided":false,"pbrMetallicRoughness":{"baseColorFactor":[1.0,1.0,1.0,1.0],"metallicFactor":1.0,"roughnessFactor":1.0}}],"cameras":[{"name":"Camera","type":"perspective","perspective":{"znear":0.01,"yfov":0.8726}}]}