{
  "accessors": [
    {
      "bufferView": 2,
      "componentType": 5126,
      "count": 1262,
      "max": [
        -8.4644813537597656,
        6.083916187286377,
        0.88814699649810791
      ],
      "min": [
        -11.939896583557129,
        3.9220991134643555,
        0.46259400248527527
      ],
      "type": "VEC3"
    },
    {
      "bufferView": 2,
      "byteOffset": 15144,
      "componentType": 5126,
      "count": 1262,
      "max": [
        0.9955744743347168,
        0.9970058798789978,
        0.97887557744979858
      ],
      "min": [
        -0.98882347345352173,
        -0.99427276849746704,
        -0.99154561758041382
      ],
      "type": "VEC3"
    },
    {
      "bufferView": 3,
      "componentType": 5126,
      "count": 1262,
      "max": [
        0.98021507263183594,
        0.97870838642120361,
        0.99013984203338623,
        1
      ],
      "min": [
        -0.98021513223648071,
        -0.99058949947357178,
        -0.99991041421890259,
        -1
      ],
      "type": "VEC4"
    },
    {
      "bufferView": 1,
      "componentType": 5126,
      "count": 1262,
      "max": [
        1,
        1
      ],
      "min": [
        0,
        0
      ],
      "type": "VEC2"
    },
    {
      "bufferView": 0,
      "componentType": 5125,
      "count": 1944,
      "max": [
        1261
      ],
      "min": [
        0
      ],
      "type": "SCALAR"
    },
    {
      "bufferView": 2,
      "byteOffset": 30288,
      "componentType": 5126,
      "count": 3934,
      "max": [
        -9.8580713272094727,
        7.8187551498413086,
        0.85536998510360718
      ],
      "min": [
        -15.366735458374023,
        3.589148998260498,
        -0.24666100740432739
      ],
      "type": "VEC3"
    },
    {
      "bufferView": 2,
      "byteOffset": 77496,
      "componentType": 5126,
      "count": 3934,
      "max": [
        1,
        1,
        1
      ],
      "min": [
        -1,
        -1,
        -1
      ],
      "type": "VEC3"
    },
    {
      "bufferView": 3,
      "byteOffset": 20192,
      "componentType": 5126,
      "count": 3934,
      "max": [
        1,
        1,
        1,
        1
      ],
      "min": [
        -1,
        -1,
        -1,
        1
      ],
      "type": "VEC4"
    },
    {
      "bufferView": 1,
      "byteOffset": 10096,
      "componentType": 5126,
      "count": 3934,
      "max": [
        0.98354101181030273,
        0.99203699827194214
      ],
      "min": [
        0.012415999546647072,
        0.0042840000241994858
      ],
      "type": "VEC2"
    },
    {
      "bufferView": 0,
      "byteOffset": 7776,
      "componentType": 5125,
      "count": 14856,
      "max": [
        3933
      ],
      "min": [
        0
      ],
      "type": "SCALAR"
    },
    {
      "bufferView": 2,
      "byteOffset": 124704,
      "componentType": 5126,
      "count": 130,
      "max": [
        -12.450761795043945,
        5.9891772270202637,
        0.15203000605106354
      ],
      "min": [
        -13.72447681427002,
        4.0551657676696777,
        -0.20028899610042572
      ],
      "type": "VEC3"
    },
    {
      "bufferView": 2,
      "byteOffset": 126264,
      "componentType": 5126,
      "count": 130,
      "max": [
        8.0000017987913452e-06,
        0.74633997678756714,
        1
      ],
      "min": [
        -1.9999999494757503e-05,
        -0.74337399005889893,
        -1
      ],
      "type": "VEC3"
    },
    {
      "bufferView": 3,
      "byteOffset": 83136,
      "componentType": 5126,
      "count": 130,
      "max": [
        1,
        0.076385021209716797,
        0.064774170517921448,
        1
      ],
      "min": [
        -1,
        -0.063962250947952271,
        -0.01350280549377203,
        1
      ],
      "type": "VEC4"
    },
    {
      "bufferView": 1,
      "byteOffset": 41568,
      "componentType": 5126,
      "count": 130,
      "max": [
        0.96959102153778076,
        0.23143200576305389
      ],
      "min": [
        0.92077499628067017,
        0.050969000905752182
      ],
      "type": "VEC2"
    },
    {
      "bufferView": 0,
      "byteOffset": 67200,
      "componentType": 5125,
      "count": 576,
      "max": [
        129
      ],
      "min": [
        0
      ],
      "type": "SCALAR"
    },
    {
      "bufferView": 2,
      "byteOffset": 127824,
      "componentType": 5126,
      "count": 3133,
      "max": [
        -8.4364957809448242,
        6.2206330299377441,
        0.72702300548553467
      ],
      "min": [
        -13.851077079772949,
        3.8137500286102295,
        -0.26859799027442932
      ],
      "type": "VEC3"
    },
    {
      "bufferView": 2,
      "byteOffset": 165420,
      "componentType": 5126,
      "count": 3133,
      "max": [
        1,
        0.99999988079071045,
        1
      ],
      "min": [
        -0.99999988079071045,
        -0.9999997615814209,
        -1
      ],
      "type": "VEC3"
    },
    {
      "bufferView": 3,
      "byteOffset": 85216,
      "componentType": 5126,
      "count": 3133,
      "max": [
        0.99991625547409058,
        1,
        0.99999284744262695,
        1
      ],
      "min": [
        -0.99991422891616821,
        -0.99999982118606567,
        -0.99999469518661499,
        -1
      ],
      "type": "VEC4"
    },
    {
      "bufferView": 1,
      "byteOffset": 42608,
      "componentType": 5126,
      "count": 3133,
      "max": [
        0.98921102285385132,
        0.76979398727416992
      ],
      "min": [
        0.30214300751686096,
        0.0070589999668300152
      ],
      "type": "VEC2"
    },
    {
      "bufferView": 0,
      "byteOffset": 69504,
      "componentType": 5125,
      "count": 17472,
      "max": [
        3132
      ],
      "min": [
        0
      ],
      "type": "SCALAR"
    },
    {
      "bufferView": 2,
      "byteOffset": 203016,
      "componentType": 5126,
      "count": 52,
      "max": [
        -9.8685617446899414,
        5.3563551902770996,
        0.84557199478149414
      ],
      "min": [
        -11.002796173095703,
        3.8447670936584473,
        -0.23684099316596985
      ],
      "type": "VEC3"
    },
    {
      "bufferView": 2,
      "byteOffset": 203640,
      "componentType": 5126,
      "count": 52,
      "max": [
        1,
        0.086787976324558258,
        0.026334995403885841
      ],
      "min": [
        0.45191299915313721,
        -0.89206200838088989,
        -6.100000609876588e-05
      ],
      "type": "VEC3"
    },
    {
      "bufferView": 3,
      "byteOffset": 135344,
      "componentType": 5126,
      "count": 52,
      "max": [
        1.9171043277310673e-06,
        0.9961734414100647,
        0.67182224988937378,
        1
      ],
      "min": [
        -0.83902746438980103,
        -0.42506799101829529,
        -0.67479825019836426,
        1
      ],
      "type": "VEC4"
    },
    {
      "bufferView": 1,
      "byteOffset": 67672,
      "componentType": 5126,
      "count": 52,
      "max": [
        0.95791798830032349,
        0.75375998020172119
      ],
      "min": [
        0.048799000680446625,
        0.01908399909734726
      ],
      "type": "VEC2"
    },
    {
      "bufferView": 0,
      "byteOffset": 139392,
      "componentType": 5125,
      "count": 132,
      "max": [
        51
      ],
      "min": [
        0
      ],
      "type": "SCALAR"
    }
  ],
  "asset": {
    "extras": {
      "author": "Nikhil chatla (https://sketchfab.com/Nikhilchatla)",
      "license": "CC-BY-NC-ND-4.0 (http://creativecommons.org/licenses/by-nc-nd/4.0/)",
      "source": "https://sketchfab.com/models/8391ea38c022476b8896bd65b8146c29",
      "title": "Boat"
    },
    "generator": "Sketchfab-3.31.2",
    "version": "2.0"
  },
  "bufferViews": [
    {
      "buffer": 0,
      "byteLength": 139920,
      "byteOffset": 0,
      "name": "floatBufferViews",
      "target": 34963
    },
    {
      "buffer": 0,
      "byteLength": 68088,
      "byteOffset": 139920,
      "byteStride": 8,
      "name": "floatBufferViews",
      "target": 34962
    },
    {
      "buffer": 0,
      "byteLength": 204264,
      "byteOffset": 208008,
      "byteStride": 12,
      "name": "floatBufferViews",
      "target": 34962
    },
    {
      "buffer": 0,
      "byteLength": 136176,
      "byteOffset": 412272,
      "byteStride": 16,
      "name": "floatBufferViews",
      "target": 34962
    }
  ],
  "buffers": [
    {
      "byteLength": 548448,
      "uri": "scene.bin"
    }
  ],
  "extensionsRequired": [
    "KHR_materials_pbrSpecularGlossiness"
  ],
  "extensionsUsed": [
    "KHR_materials_pbrSpecularGlossiness"
  ],
  "images": [
    {
      "uri": "textures/mia_material_x2SG_diffuse.jpeg"
    },
    {
      "uri": "textures/mia_material_x2SG_specularGlossiness.png"
    },
    {
      "uri": "textures/phong2SG_diffuse.jpeg"
    },
    {
      "uri": "textures/phong2SG_specularGlossiness.png"
    }
  ],
  "materials": [
    {
      "doubleSided": true,
      "extensions": {
        "KHR_materials_pbrSpecularGlossiness": {
          "diffuseFactor": [
            1,
            1,
            1,
            1
          ],
          "diffuseTexture": {
            "index": 0,
            "texCoord": 0
          },
          "glossinessFactor": 1,
          "specularFactor": [
            1,
            1,
            1
          ],
          "specularGlossinessTexture": {
            "index": 1,
            "texCoord": 0
          }
        }
      },
      "name": "mia_material_x2SG"
    },
    {
      "doubleSided": true,
      "extensions": {
        "KHR_materials_pbrSpecularGlossiness": {
          "diffuseFactor": [
            1,
            1,
            1,
            1
          ],
          "diffuseTexture": {
            "index": 2,
            "texCoord": 0
          },
          "glossinessFactor": 1,
          "specularFactor": [
            0.14999999999999999,
            0.14999999999999999,
            0.14999999999999999
          ],
          "specularGlossinessTexture": {
            "index": 3,
            "texCoord": 0
          }
        }
      },
      "name": "phong2SG"
    }
  ],
  "meshes": [
    {
      "primitives": [
        {
          "attributes": {
            "NORMAL": 1,
            "POSITION": 0,
            "TANGENT": 2,
            "TEXCOORD_0": 3
          },
          "indices": 4,
          "material": 0,
          "mode": 4
        }
      ]
    },
    {
      "primitives": [
        {
          "attributes": {
            "NORMAL": 6,
            "POSITION": 5,
            "TANGENT": 7,
            "TEXCOORD_0": 8
          },
          "indices": 9,
          "material": 1,
          "mode": 4
        }
      ]
    },
    {
      "primitives": [
        {
          "attributes": {
            "NORMAL": 11,
            "POSITION": 10,
            "TANGENT": 12,
            "TEXCOORD_0": 13
          },
          "indices": 14,
          "material": 1,
          "mode": 4
        }
      ]
    },
    {
      "primitives": [
        {
          "attributes": {
            "NORMAL": 16,
            "POSITION": 15,
            "TANGENT": 17,
            "TEXCOORD_0": 18
          },
          "indices": 19,
          "material": 1,
          "mode": 4
        }
      ]
    },
    {
      "primitives": [
        {
          "attributes": {
            "NORMAL": 21,
            "POSITION": 20,
            "TANGENT": 22,
            "TEXCOORD_0": 23
          },
          "indices": 24,
          "material": 1,
          "mode": 4
        }
      ]
    }
  ],
  "nodes": [
    {
      "children": [
        1
      ],
      "name": "RootNode (gltf orientation matrix)",
      "rotation": [
        -0.70710678118654746,
        -0,
        -0,
        0.70710678118654757
      ]
    },
    {
      "children": [
        2
      ],
      "name": "RootNode (model correction matrix)"
    },
    {
      "children": [
        3,
        4,
        5,
        6,
        7
      ],
      "name": "Boat.obj.cleaner.materialmerger.gles"
    },
    {
      "mesh": 0,
      "name": ""
    },
    {
      "mesh": 1,
      "name": ""
    },
    {
      "mesh": 2,
      "name": ""
    },
    {
      "mesh": 3,
      "name": ""
    },
    {
      "mesh": 4,
      "name": ""
    }
  ],
  "samplers": [
    {
      "magFilter": 9729,
      "minFilter": 9987,
      "wrapS": 10497,
      "wrapT": 10497
    }
  ],
  "scene": 0,
  "scenes": [
    {
      "name": "OSG_Scene",
      "nodes": [
        0
      ]
    }
  ],
  "textures": [
    {
      "sampler": 0,
      "source": 0
    },
    {
      "sampler": 0,
      "source": 1
    },
    {
      "sampler": 0,
      "source": 2
    },
    {
      "sampler": 0,
      "source": 3
    }
  ]
}

